<svg width="18px" height="18px" viewBox="0 0 18 18" version="1.1" xmlns="http://www.w3.org/2000/svg" xmlns:xlink="http://www.w3.org/1999/xlink">
    <title>Group</title>
    <g id="Page-1" stroke="none" stroke-width="1" fill="F0BD66" fill-rule="evenodd">
        <g id="Group" fill-rule="nonzero">
            <path d="M0,9.00056423 C0,2.25014106 2.25014106,0 9.00056423,0 C15.7498589,0 18,2.25014106 18,9.00056423 C18,15.7498589 15.7498589,18 9.00056423,18 C2.25014106,18 0,15.7498589 0,9.00056423" id="Path" fill="#F0BD66"></path>
            <path d="M8.93595619,9.90008789 L6.01559073,9.90008789 C5.92949505,9.90008789 5.85028703,9.85229562 5.81125698,9.77719347 C5.771079,9.70209132 5.7791146,9.61105841 5.82962406,9.54278372 L9.50303974,4.59400717 C9.65227225,4.39373477 9.97254818,4.54052534 9.91170723,4.78062464 L9.06452574,8.09991211 L11.9848912,8.09991211 C12.0709869,8.09991211 12.149047,8.14656647 12.1892249,8.22280653 C12.228255,8.29790868 12.2213673,8.38894159 12.1708579,8.45721628 L8.49629425,13.4059928 C8.34820968,13.6062652 8.02678581,13.4594747 8.08762676,13.2193754 L8.93595619,9.90008789 Z" id="Path" fill="#FFFFFF"></path>
        </g>
    </g>
</svg>